Coordinates
version=1
nRows=7
nColumns=40
inDegrees=yes

Units are S.I. units (second, meters, Newtons, ...)
Angles are in degrees.

endheader
time	pelvis_tilt	pelvis_list	pelvis_rotation	pelvis_tx	pelvis_ty	pelvis_tz	hip_flexion_r	hip_adduction_r	hip_rotation_r	knee_angle_r	knee_angle_r_beta	ankle_angle_r	subtalar_angle_r	mtp_angle_r	hip_flexion_l	hip_adduction_l	hip_rotation_l	knee_angle_l	knee_angle_l_beta	ankle_angle_l	subtalar_angle_l	mtp_angle_l	lumbar_extension	lumbar_bending	lumbar_rotation	arm_flex_r	arm_add_r	arm_rot_r	elbow_flex_r	pro_sup_r	wrist_flex_r	wrist_dev_r	arm_flex_l	arm_add_l	arm_rot_l	elbow_flex_l	pro_sup_l	wrist_flex_l	wrist_dev_l
     32.71250000	     -4.70048172	     -3.36553143	      9.87726529	      0.84408946	      0.91833405	      0.48703309	      0.91237288	      0.99540489	    -16.84804687	     19.54933910	     19.54933910	     19.43101331	     -4.03576825	     -2.00325873	     27.23450484	     -4.16550470	      4.81726051	     25.32829875	     25.32829875	      5.26540180	    -12.23086663	      3.04786444	     -8.17751681	      2.47198004	      4.90570349	     50.14141197	    -14.71401340	     -4.87571779	     69.70098323	     45.26425864	      0.00000000	      0.00000000	    -10.26947419	     -9.17808294	     20.59481597	     29.74520496	     43.41124487	      0.00000000	      0.00000000
     32.73542857	     -4.80085372	     -3.40226362	      9.36761494	      0.84616439	      0.91893534	      0.48199813	      0.56710167	      0.64586570	    -16.53189370	     19.55584310	     19.55584310	     19.12111261	     -3.76462637	     -1.99168046	     26.93628287	     -4.04213807	      4.52623417	     25.69739132	     25.69739132	      5.81603805	    -12.63402761	      2.97896473	     -8.06776027	      2.58479432	      4.91577175	     49.69787674	    -14.52196773	     -4.80610589	     69.57084697	     45.26464321	      0.00000000	      0.00000000	    -10.10131675	     -9.31952115	     20.55804615	     29.74857310	     43.42603426	      0.00000000	      0.00000000
     32.75835714	     -4.87097525	     -3.43942411	      8.85963841	      0.84825664	      0.91954406	      0.47688114	      0.16767529	      0.27346386	    -16.33749877	     19.51831109	     19.51831109	     18.80433379	     -3.28837095	     -2.05610719	     26.60118707	     -3.90935927	      4.23513450	     26.06518291	     26.06518291	      6.41450918	    -13.03712406	      3.00648991	     -7.98859700	      2.69205552	      4.92139299	     49.12619177	    -14.38942793	     -4.76522163	     69.34933043	     45.26877779	      0.00000000	      0.00000000	     -9.89224513	     -9.43385802	     20.51077950	     29.74608903	     43.44537647	      0.00000000	      0.00000000
     32.78128571	     -4.91016025	     -3.40625474	      8.38643345	      0.85039404	      0.92017974	      0.47154495	     -0.33695476	     -0.29789637	    -16.72601217	     19.41036400	     19.41036400	     18.38226693	     -1.89820944	     -2.91290349	     26.22762945	     -3.68076457	      3.93415247	     26.48211576	     26.48211576	      7.47088831	    -13.20957228	      4.18924941	     -7.89809866	      2.74369713	      5.01892940	     48.43441582	    -14.42536324	     -4.94953460	     68.90918446	     45.29159223	      0.00000000	      0.00000000	     -9.48908249	     -9.46476816	     20.32670741	     29.47560995	     43.53774852	      0.00000000	      0.00000000
     32.80421429	     -4.98930668	     -3.48051394	      7.85172263	      0.85242219	      0.92065724	      0.46638567	     -0.64258775	     -0.65335408	    -16.39868533	     19.46626617	     19.46626617	     18.07273896	     -1.57735670	     -2.92862228	     25.85805851	     -3.58776215	      3.60740742	     26.74955726	     26.74955726	      8.01319825	    -13.55523522	      4.13571718	     -7.78410844	      2.93768276	      4.92879377	     47.61891320	    -14.19250032	     -4.86436923	     68.65212320	     45.29381593	      0.00000000	      0.00000000	     -9.17399076	     -9.59146387	     20.26468965	     29.51320382	     43.55776630	      0.00000000	      0.00000000
     32.82714286	     -5.03288428	     -3.54673678	      7.32951323	      0.85449351	      0.92109904	      0.46125793	     -0.98043821	     -1.02849655	    -16.13143078	     19.53487644	     19.53487644	     17.77934631	     -1.15808212	     -2.97015561	     25.45053076	     -3.48906136	      3.26298025	     27.01904993	     27.01904993	      8.55385393	    -13.88060946	      4.08148226	     -7.68489906	      3.10851590	      4.82355216	     46.63712945	    -14.01571430	     -4.79689983	     68.29253454	     45.29934166	      0.00000000	      0.00000000	     -8.79894429	     -9.71063987	     20.19013340	     29.56816363	     43.57957711	      0.00000000	      0.00000000
     32.85007143	     -5.03346413	     -3.60304671	      6.79536974	      0.85652475	      0.92152376	      0.45610133	     -1.32739828	     -1.44327316	    -15.92365272	     19.65687414	     19.65687414	     17.49471557	     -0.63104271	     -3.07316394	     24.99730931	     -3.38229261	      2.89504135	     27.28874339	     27.28874339	      9.11250577	    -14.17092145	      4.05785224	     -7.59922923	      3.29381685	      4.74205834	     45.42719298	    -13.87820570	     -4.74549176	     67.78495897	     45.30946565	      0.00000000	      0.00000000	     -8.31690461	     -9.84511018	     20.08458786	     29.63973468	     43.60822548	      0.00000000	      0.00000000
